<?xml version="1.0" standalone="no"?>
<!DOCTYPE svg PUBLIC "-//W3C//DTD SVG 20010904//EN"
 "http://www.w3.org/TR/2001/REC-SVG-20010904/DTD/svg10.dtd">
<svg version="1.0" xmlns="http://www.w3.org/2000/svg"
 width="7791.000000pt" height="7791.000000pt" viewBox="0 0 7791.000000 7791.000000"
 preserveAspectRatio="xMidYMid meet">
<metadata>
Created by potrace 1.11, written by Peter Selinger 2001-2013
</metadata>
<g transform="translate(0.000000,7791.000000) scale(0.100000,-0.100000)"
fill="#000000" stroke="none">
<path d="M60128 71094 l-3 -6816 -160 133 c-2362 1961 -5130 3653 -7985 4879
-1811 778 -3686 1390 -5617 1835 -2587 595 -5356 881 -8000 827 -612 -13 -808
-20 -1298 -47 -1854 -103 -3730 -370 -5557 -790 -509 -117 -1315 -327 -1763
-458 l-150 -44 -3 -6332 c-1 -3482 0 -6331 1 -6331 2 0 92 43 199 95 2413
1167 5102 1869 7818 2040 654 41 1628 53 2200 26 2284 -104 4343 -511 6430
-1271 3242 -1181 6238 -3222 8541 -5820 1757 -1983 3095 -4200 4014 -6655 729
-1949 1166 -4002 1295 -6090 50 -820 52 -1758 5 -2560 -192 -3241 -1096 -6323
-2682 -9144 -728 -1295 -1645 -2577 -2642 -3696 -507 -569 -1167 -1229 -1736
-1736 -1698 -1514 -3662 -2763 -5755 -3659 -1828 -783 -3760 -1302 -5750
-1545 -180 -22 -682 -75 -710 -75 -7 0 -10 -1909 -10 -5931 l0 -5931 103 7
c1024 66 1858 149 2733 274 5837 833 11299 3197 15919 6892 1587 1268 3098
2726 4420 4264 2061 2398 3754 5050 5052 7915 1700 3750 2676 7790 2883 11930
6 118 16 316 22 440 9 166 12 4219 15 15532 l3 15306 -161 179 c-800 881
-1806 1898 -2689 2719 -2487 2309 -5259 4346 -8200 6024 -322 184 -765 430
-774 430 -3 0 -7 -3067 -8 -6816z"/>
<path d="M17610 64128 c-1518 -1287 -2945 -2741 -4215 -4293 -2508 -3066
-4447 -6561 -5708 -10290 -1006 -2976 -1569 -6012 -1707 -9210 -28 -650 -30
-1541 -30 -16022 l0 -14962 208 -228 c806 -885 1779 -1867 2647 -2674 2626
-2437 5571 -4572 8696 -6302 136 -75 254 -139 263 -143 15 -6 16 508 16 6811
l0 6817 24 -19 c13 -10 142 -114 285 -232 1207 -990 2536 -1924 3906 -2746
4380 -2629 9251 -4184 14360 -4585 229 -18 698 -50 733 -50 9 0 12 1193 12
5930 0 3262 -4 5930 -8 5930 -31 0 -551 56 -752 81 -4984 616 -9571 2983
-12985 6699 -2517 2741 -4271 6102 -5070 9715 -297 1347 -455 2642 -495 4060
-6 221 -10 5048 -10 13098 0 7011 -3 12747 -7 12747 -5 0 -78 -60 -163 -132z"/>
<path d="M38555 48340 c-895 -41 -1751 -199 -2581 -475 -794 -265 -1617 -673
-2304 -1143 -1067 -730 -1970 -1664 -2655 -2747 -321 -507 -616 -1094 -834
-1660 -701 -1824 -809 -3871 -305 -5778 345 -1305 984 -2543 1849 -3582 369
-443 841 -912 1291 -1281 959 -786 2116 -1395 3304 -1740 856 -249 1744 -374
2644 -374 1874 1 3678 550 5230 1593 1506 1012 2697 2449 3403 4107 853 2002
987 4238 378 6334 -344 1184 -953 2341 -1739 3300 -369 450 -838 922 -1281
1291 -924 769 -2024 1370 -3165 1728 -709 223 -1430 359 -2180 412 -270 19
-805 26 -1055 15z"/>
</g>
</svg>
