<?xml version="1.0" encoding="utf-8"?>
<!-- Generator: Adobe Illustrator 25.0.1, SVG Export Plug-In . SVG Version: 6.00 Build 0)  -->
<svg version="1.1" id="Ebene_1" xmlns="http://www.w3.org/2000/svg" xmlns:xlink="http://www.w3.org/1999/xlink" x="0px" y="0px"
	 viewBox="0 0 3000 1217.64" style="enable-background:new 0 0 3000 1217.64;" xml:space="preserve">
<style type="text/css">
	.st0{fill:#0A002C;}
</style>
<path class="st0" d="M2614.06,129.52c0.01-0.61-0.01-1.21-0.07-1.81c2.11-2.25,3.64-4.76,3.77-7.95c4.49-1.91,7.6-5.13,9.71-9.55
	c2.59-5.44,7.12-8.67,12.84-10.26c5.44-1.51,10.9-2.99,16.38-4.35c11.25-2.8,21.39-7.48,28.29-17.29
	c6.48-9.21,13.63-17.9,17.83-28.67c5.32-13.65,15.77-22.59,28.92-28.76c12.61-5.91,25.49-9.31,39.58-7.4
	c4.55,0.62,9.48,0.65,13.91-0.41c18.72-4.46,37.73-3.4,56.63-3.34c20.3,0.06,40.57-0.45,60.84-1.31c4.64-0.2,9.28-0.71,13.89-1.35
	c27.67-3.88,55.48-5.67,83.42-5.36c0,405.27,0,810.55,0,1215.95c-1000,0-2000,0-3000,0c0-173.29,0-346.6,0-519.91
	c8.42,1.18,15.58,4.57,22.12,10.3c10.37,9.08,21.97,15.77,36.47,16.45c6.19,0.29,12.43,2.26,18.39,4.24
	c11.84,3.92,23.63,6.57,36.16,3.66c3.51-0.82,7.28-0.55,10.92-0.79c5.38,0.7,10.42,2.45,14.74,5.74c2.87,2.18,5.97,2.71,9.37,2.69
	c9.44-0.05,18.16,0.44,27.27,5.4c9.02,4.92,19.99,7.14,30.62,8.35c17.38,1.98,33.43,8.52,49.51,14.63
	c6.91,2.63,13.72,4.72,20.97,5.3c5.02,0.4,9.78,1.69,14.5,3.22c9.35,3.03,17.56,9.1,27.6,10.34c1.98,0.25,4.1,1.04,5.17,2.77
	c5.22,8.42,14.06,9.99,22.51,10.9c10.7,1.14,20.11,6.15,30.12,9.07c7.4,2.16,15.54,5.88,21.46,12.07c1.44,1.51,3.27,2.12,5.29,2.53
	c9.08,1.87,17.28,6.17,25.73,9.7c5.6,2.34,11.09,3.99,17.16,4.64c16.86,1.8,33.93,1.26,50.64,4.74c5.31,1.11,10.06,2.77,14.41,6.28
	c6.43,5.18,12.92,10.6,22.05,10.42c1.46-0.03,3.03,1.19,4.42,2.04c8.51,5.18,16.69,10.98,25.54,15.48
	c11.5,5.85,22.67,12.48,35.16,16.29c22.89,6.99,45.81,14.08,65.58,28.2c10.61,7.58,23.7,10.34,33.96,18.57
	c4.63,3.71,10.32,6.07,15.23,9.46c11.82,8.17,25.65,12.7,37.45,20.84c16.72,11.52,33.87,22.5,49.83,34.99
	c13.8,10.8,29.52,16.17,45.89,20.36c14.53,3.72,28.55,8.61,42.02,15.19c6.3,3.08,13.12,4.8,19.92,6.17
	c10.72,2.16,21.72,3.01,32.37,5.45c17.88,4.09,36.03,5.76,54.22,6.66c18.18,0.9,34.37,7.48,49.65,16.24
	c5.79,3.32,10.83,4.55,16.85,3.1c24.22-5.86,47.88-13.5,70.9-23.03c16.14-6.68,31.63-15.22,49.47-16.91
	c0.97-0.09,1.92-0.57,2.84-0.94c12.63-5.18,24.83-11.34,37.84-15.67c8.49-2.83,16.57-6.9,24.96-10.07c2.71-1.02,6.51-3.33,8.51-1.58
	c5.69,4.97,9.1,0.23,13.05-2.09c6.94-4.08,13.49-7.18,22.36-5.21c9.82,2.18,19.69,0.69,28.34-6c10.81-8.37,23.69-13.45,35.1-20.93
	c4.2-2.75,9.07-3.76,14.05-4.73c12.7-2.49,25.31-5.55,36.35-12.84c1.96-1.29,3.9-2.4,6.18-3.11c12.6-3.89,12.58-3.95,9.54-16.85
	c-0.31-1.3-0.81-2.56-0.96-3.88c-1.62-14.1-6.87-27.89-3.53-42.43c4.96-21.61,1.02-42.84-2.59-64.15
	c-1.99-11.76-6.9-22.68-8.4-34.62c-1.33-10.62,0.7-22.2-6.96-31.52c-0.51-0.62-0.25-1.95-0.18-2.94c0.81-10.28-0.22-20.6,1.5-30.89
	c1.38-8.26,2.22-16.82-3.01-24.88c-0.93,1.14-1.87,2.06-2.55,3.14c-5.45,8.62-4.51,18.58-5.7,28.05
	c-1.94,15.39,0.18,30.36,5.32,44.98c1.73,4.92,3.74,9.89,3.96,15.68c-3.02-0.72-3.22-2.16-3.93-3.23c-0.98-1.48-1.01-4.58-3.76-3.55
	c-2.92,1.1-1.65,3.83-1.36,6.09c0.59,4.58,4.69,7.22,7.47,11.56c-8.92-1.15-15.67-3.34-18.04-11.7c-1.76-6.2-2.91-12.41-8.66-16.85
	c-2.31-1.79-2.64-6.02-2.22-9.43c0.37-3.04,0.34-6.05-0.78-8.87c-4.2-10.62-1.18-21.64-1.38-32.4c-0.21-11.5,2.24-23.04,3.51-34.56
	c1.38-12.56,3.01-25.16,6.32-37.3c2.75-10.07,5.6-20.7,17.3-25.22c4.56-1.76,6.72-6.5,7.97-10.98c1.4-5.01,4.69-7.85,8.91-10.15
	c2.61-1.43,5.18-2.94,7.79-4.42c-7.14-9.87-9.49-18.13-8.24-28.66c1.84-15.61,19.49-24.84,33.09-17.31
	c10.57,5.85,16.41,25.1,10.9,35.97c-3.04,5.99-2.92,6.8,2.96,10.15c4.04,2.3,8.26,4.1,11.22,8.05c2.8,3.74,6.53,6.5,11.22,7.74
	c6.35,1.68,10.03,6.48,12.62,11.96c5.77,12.24,9,25.43,13.55,38.13c2.52,7.03,3.86,13.96,3.18,21.46
	c-0.42,4.57-0.78,9.67,0.78,13.79c3.73,9.83,6.99,19.87,10.22,29.81c3.21,9.89,9.2,20.16,3.45,31.39c-0.6,1.17,0.42,3.17,0.69,4.79
	c1.21,7.3-1.28,13.56-5.45,19.33c-2.5,3.47-6.2,2.59-9.04,1.37c-2.88-1.24-1.01-4.59-0.15-6.17c3.12-5.7,0.16-10.83-1.07-15.95
	c-1.39-5.77-3.86-11.27-5.64-16.98c-2.25-7.22-5.66-14.13-8.01-21.4c-0.58-1.8-1.89-3.58-4.34-3.56c-0.28,0.56-0.93,1.24-0.79,1.64
	c2.89,8.37-0.38,17.82,4.54,25.84c0.48,0.78,0.85,2.12,0.51,2.85c-3.85,8.28,1.43,15.38,2.86,22.95c0.86,4.56,3.34,8.67,3.61,13.45
	c0.69,12.15,1.74,24.28,2.37,36.43c0.85,16.54,1.04,33.13,2.29,49.64c0.61,8.06,0.31,15.92-0.66,23.86
	c-1.73,14.15-3.36,28.31-5.22,42.44c-0.44,3.31,0.91,4.32,3.74,3.97c1.97-0.24,4.06-0.58,5.78-1.48c10.99-5.7,21.8-3.27,32.82,0.05
	c10.47,3.15,21.18,5.48,31.7,8.47c7.92,2.25,16.64,3.51,23.35,7.8c11.25,7.21,23.86,11.02,35.64,16.8
	c18.7,9.18,37.2,18.74,55.88,27.94c9.46,4.66,19.27,8.78,28.74,13.38c12.47,6.06,25.2,12.13,35.18,22.4
	c7.39,7.61,15.42,14.21,25.67,18.18c8.78,3.4,13.06,2.44,17.09-6.11c1.52-3.22,1.81-7.05,5.19-9.44c5.8-4.1,8.28-10.25,9.28-17.04
	c0.61-4.14,2.7-7.35,5.33-10.48c10.01-11.94,20.09-23.88,22.15-40.23c0.38-2.98,1.21-5.88,3.02-8.38c1.2-1.66,1.99-3.48,2.07-5.53
	c0.39-10.21,5.11-19.96,3.22-30.46c-0.26-1.42,0.78-3.18,1.49-4.65c2.21-4.6,2.65-9.35,2.89-14.46c0.51-11.29,3.55-21.72,15-27.23
	c2.8-1.35,4.59-3.65,6.32-6.19c4.7-6.88,9.88-13.39,15.82-19.26c1.16-1.15,2.22-2.9,3.6-3.24c11.86-2.91,21.42-10.58,32.29-15.53
	c11.25-5.12,19.53-13.49,21.03-26.77c0.18-1.61,0.7-3.31,1.53-4.69c8.25-13.62,18.99-24.28,33.84-31.01
	c10.58-4.8,21.62-8.55,31.86-14.2c4.2-2.32,6.32-6.7,10.91-8.45c5.45-2.07,11.35-3.75,14.05-10.03c0.84-1.95,3.32-1.92,5.33-2.11
	c11.37-1.08,18.99-9.22,27.3-15.46c8.15-6.11,16.41-12.79,20.08-23.15c0.4-1.14,1.73-2,2.71-2.89c10.25-9.32,21-18.08,30.69-28.04
	c4.3-4.42,7.71-9.07,9.59-14.92c1.23-3.81,3.01-7.27,5.78-10.35c9.62-10.7,17.79-22.63,31.03-29.89
	c8.36-4.58,15.52-11.34,23.19-17.17c11.89-9.03,24.4-16.87,37.64-23.98c22.56-12.11,42.36-28.45,61.38-45.65
	c13.08-11.83,26.36-23.43,39.29-35.45c11.9-11.06,24.74-21.15,33.32-35.31c8.36-13.72,15.28-28.04,18.3-43.98
	c1.23-6.46,4.38-11.43,9.48-15.85c6.98-6.06,11.71-15.01,20.82-18.23c8.44-2.99,11.97-8.95,13.11-16.91
	c3.13-21.79,16.01-35.62,35.03-45.3c7.06-3.59,14.55-6.82,21-11.19c16.3-11.06,34.42-20.58,42.86-40.16
	c1.31-3.05,2.78-6.04,3.87-9.17c1.65-4.76,3.38-9.67,6.78-13.27c13.25-14.04,21.22-31.14,28.87-48.45c1.76-3.99,4.05-6.93,8.57-7.3
	c4.04-0.33,6.26-2.77,8.82-5.66c7.62-8.64,11.34-19.52,17.44-29c0.51-0.8,0.75-1.9,0.76-2.87c0.11-11.31,7.89-18.4,14.36-26.21
	C2614.1,133.17,2614.5,131.52,2614.06,129.52z M1451.5,797.8c-5.56,2.78-5.28,6.83-5.77,10.26c-1.4,9.94-1.81,20.03,0.24,29.85
	c2.81,13.46,0.41,26.48-1.61,39.67c-0.9,5.9-3.83,11.51-3.13,17.57c1.22,10.65,0.27,21.3,0.67,31.94c0.26,6.97,1.2,13.93,2.23,20.84
	c0.42,2.8,0.87,5.94,4.44,7.2c6.25,2.2,12.31,4.89,19.08,5.3c2.74,0.17,4.49-0.33,5.16-3.21c1.66-7.1,4.8-14.2,4.75-21.28
	c-0.06-10.21,0.77-20.63-1.87-30.73c-0.94-3.62-1.27-7.31-0.53-10.9c2.46-11.99,1.39-23.69-1.18-35.59
	c-3.47-16-7.06-31.82-15.7-46.03C1455.54,808.19,1452.37,803.89,1451.5,797.8z"/>
</svg>
